<?xml version="1.0" encoding="UTF-8" standalone="no"?>
<!-- Created with Inkscape (http://www.inkscape.org/) -->

<svg
   version="1.1"
   id="svg2"
   width="1535.3467"
   height="278.30533"
   viewBox="0 0 1535.3467 278.30533"
   sodipodi:docname="logo_white.ai"
   xmlns:inkscape="http://www.inkscape.org/namespaces/inkscape"
   xmlns:sodipodi="http://sodipodi.sourceforge.net/DTD/sodipodi-0.dtd"
   xmlns="http://www.w3.org/2000/svg"
   xmlns:svg="http://www.w3.org/2000/svg">
  <defs
     id="defs6">
    <clipPath
       clipPathUnits="userSpaceOnUse"
       id="clipPath16">
      <path
         d="M 0,208.729 H 1151.512 V 0 H 0 Z"
         id="path14" />
    </clipPath>
  </defs>
  <sodipodi:namedview
     id="namedview4"
     pagecolor="#ffffff"
     bordercolor="#000000"
     borderopacity="0.25"
     inkscape:showpageshadow="2"
     inkscape:pageopacity="0.0"
     inkscape:pagecheckerboard="0"
     inkscape:deskcolor="#d1d1d1" />
  <g
     id="g8"
     inkscape:groupmode="layer"
     inkscape:label="logo_white"
     transform="matrix(1.3333333,0,0,-1.3333333,0,278.30533)">
    <g
       id="g10">
      <g
         id="g12"
         clip-path="url(#clipPath16)">
        <g
           id="g18"
           transform="translate(149.3286,115.4517)">
          <path
             d="m 0,0 -39.37,39.37 c -1.953,1.953 -1.953,5.119 0,7.071 L 0,85.812 c 1.953,1.953 5.118,1.953 7.071,0 l 39.37,-39.371 c 1.953,-1.952 1.953,-5.118 0,-7.071 L 7.071,0 C 5.118,-1.953 1.953,-1.953 0,0"
             style="fill:#ffffff;fill-opacity:1;fill-rule:nonzero;stroke:none"
             id="path20" />
        </g>
        <g
           id="g22"
           transform="translate(247.0542,17.7266)">
          <path
             d="m 0,0 -82.24,82.24 c -1.952,1.951 -1.952,5.118 0,7.071 l 39.371,39.37 c 1.952,1.953 5.118,1.953 7.071,0 l 82.239,-82.24 c 1.953,-1.952 1.953,-5.118 0,-7.071 L 7.071,0 C 5.118,-1.953 1.953,-1.953 0,0"
             style="fill:#ffffff;fill-opacity:1;fill-rule:nonzero;stroke:none"
             id="path24" />
        </g>
        <g
           id="g26"
           transform="translate(190.9375,44.0733)">
          <path
             d="m 0,0 c 0,-21.027 -17.046,-38.073 -38.073,-38.073 -21.028,0 -38.074,17.046 -38.074,38.073 0,21.026 17.046,38.072 38.074,38.072 C -17.046,38.072 0,21.026 0,0"
             style="fill:#ffffff;fill-opacity:1;fill-rule:nonzero;stroke:none"
             id="path28" />
        </g>
        <g
           id="g30"
           transform="translate(58.6743,17.7266)">
          <path
             d="m 0,0 82.24,82.24 c 1.952,1.951 1.952,5.118 0,7.071 l -39.371,39.37 c -1.952,1.953 -5.118,1.953 -7.071,0 l -82.239,-82.24 c -1.953,-1.952 -1.953,-5.118 0,-7.071 L -7.071,0 C -5.118,-1.953 -1.953,-1.953 0,0"
             style="fill:#ffffff;fill-opacity:1;fill-rule:nonzero;stroke:none"
             id="path32" />
        </g>
        <g
           id="g34"
           transform="translate(401.4156,154.669)">
          <path
             d="m 0,0 h -27.67 l -37.59,-100.609 h 26.17 l 24.86,75.099 25.3,-75.099 h 26.88 z"
             style="fill:#ffffff;fill-opacity:1;fill-rule:nonzero;stroke:none"
             id="path36" />
        </g>
        <g
           id="g38"
           transform="translate(451.7276,54.0547)">
          <path
             d="M 0,0 V 100.619 H 23.861 V 21.776 H 64.252 V 0 Z"
             style="fill:#ffffff;fill-opacity:1;fill-rule:nonzero;stroke:none"
             id="path40" />
        </g>
        <g
           id="g42"
           transform="translate(532.3647,54.0547)">
          <path
             d="M 0,0 V 100.619 H 23.861 V 21.776 H 64.252 V 0 Z"
             style="fill:#ffffff;fill-opacity:1;fill-rule:nonzero;stroke:none"
             id="path44" />
        </g>
        <path
           d="m 613.002,154.673 h 23.86 V 54.054 h -23.86 z"
           style="fill:#ffffff;fill-opacity:1;fill-rule:nonzero;stroke:none"
           id="path46" />
        <g
           id="g48"
           transform="translate(678.2607,54.0547)">
          <path
             d="m 0,0 v 78.843 h -26.808 v 21.776 H 50.813 V 78.843 H 24.005 L 24.005,0 Z"
             style="fill:#ffffff;fill-opacity:1;fill-rule:nonzero;stroke:none"
             id="path50" />
        </g>
        <g
           id="g52"
           transform="translate(786.209,51.8985)">
          <path
             d="m 0,0 c -9.439,0 -17.356,1.868 -23.753,5.605 -6.396,3.739 -11.225,8.876 -14.482,15.416 -3.259,6.541 -4.887,14.051 -4.887,22.533 v 59.22 h 23.86 V 42.69 c 0,-6.851 1.7,-11.941 5.104,-15.271 3.401,-3.331 8.121,-4.995 14.158,-4.995 5.989,0 10.673,1.664 14.051,4.995 3.378,3.33 5.067,8.42 5.067,15.271 v 60.084 h 23.933 v -59.22 c 0,-8.435 -1.629,-15.919 -4.887,-22.459 C 34.905,14.554 30.078,9.402 23.682,5.642 17.285,1.881 9.391,0 0,0"
             style="fill:#ffffff;fill-opacity:1;fill-rule:nonzero;stroke:none"
             id="path54" />
        </g>
        <g
           id="g56"
           transform="translate(876.2607,71.6631)">
          <path
             d="m 0,0 h 12.578 c 5.174,0 9.056,1.054 11.643,3.162 2.588,2.109 3.881,5.271 3.881,9.486 0,4.026 -1.235,7.153 -3.702,9.379 -2.468,2.23 -6.144,3.343 -11.032,3.343 H 0 Z m 0,41.757 h 11.859 c 2.874,0 5.354,0.478 7.439,1.437 2.084,0.958 3.688,2.348 4.815,4.169 1.125,1.821 1.689,4 1.689,6.54 0,3.69 -1.235,6.54 -3.701,8.553 C 19.632,64.469 16.1,65.475 11.5,65.475 H 0 Z M -23.861,-17.608 V 83.011 h 38.954 c 10.253,0 18.446,-2.145 24.58,-6.432 6.133,-4.289 9.199,-10.649 9.199,-19.082 0,-3.067 -0.623,-5.893 -1.868,-8.481 -1.246,-2.587 -2.936,-4.876 -5.067,-6.864 -2.132,-1.988 -4.517,-3.582 -7.151,-4.779 5.414,-1.917 9.785,-5.102 13.116,-9.56 3.33,-4.456 4.995,-9.751 4.995,-15.882 0,-5.992 -1.498,-11.19 -4.492,-15.596 -2.995,-4.409 -7.248,-7.834 -12.757,-10.278 -5.51,-2.445 -12.05,-3.665 -19.621,-3.665 z"
             style="fill:#ffffff;fill-opacity:1;fill-rule:nonzero;stroke:none"
             id="path58" />
        </g>
        <g
           id="g60"
           transform="translate(994.416,74.3223)">
          <path
             d="m 0,0 c 4.168,0 7.988,0.693 11.463,2.084 3.474,1.39 6.505,3.401 9.092,6.036 2.588,2.636 4.588,5.811 6.001,9.525 1.413,3.711 2.121,7.843 2.121,12.397 0,6.133 -1.235,11.451 -3.702,15.956 -2.468,4.502 -5.87,7.987 -10.205,10.457 -4.337,2.466 -9.261,3.701 -14.77,3.701 -4.122,0 -7.931,-0.708 -11.428,-2.12 -3.498,-1.414 -6.529,-3.438 -9.092,-6.074 -2.563,-2.635 -4.563,-5.797 -6.001,-9.486 -1.437,-3.69 -2.156,-7.834 -2.156,-12.434 0,-6.085 1.245,-11.381 3.738,-15.885 C -22.449,9.653 -19.035,6.169 -14.698,3.7 -10.362,1.232 -5.463,0 0,0 m 0,-22.425 c -7.715,0 -14.842,1.33 -21.382,3.989 -6.54,2.661 -12.23,6.362 -17.069,11.105 -4.84,4.743 -8.589,10.302 -11.248,16.675 -2.659,6.371 -3.989,13.27 -3.989,20.698 0,7.475 1.33,14.397 3.989,20.771 2.659,6.372 6.408,11.93 11.248,16.674 4.839,4.742 10.529,8.432 17.069,11.068 6.54,2.633 13.667,3.953 21.382,3.953 7.762,0 14.9,-1.342 21.417,-4.026 6.516,-2.682 12.193,-6.419 17.034,-11.211 4.839,-4.792 8.588,-10.362 11.247,-16.709 2.659,-6.351 3.99,-13.189 3.99,-20.52 0,-7.428 -1.331,-14.327 -3.99,-20.698 C 47.039,2.971 43.29,-2.588 38.451,-7.331 33.61,-12.074 27.933,-15.775 21.417,-18.436 14.9,-21.095 7.762,-22.425 0,-22.425"
             style="fill:#ffffff;fill-opacity:1;fill-rule:nonzero;stroke:none"
             id="path62" />
        </g>
        <g
           id="g64"
           transform="translate(1100.7832,51.8985)">
          <path
             d="m 0,0 c -7.618,0 -15.021,1.127 -22.208,3.378 -7.188,2.252 -13.272,5.51 -18.256,9.773 l 11.212,17.826 c 2.108,-2.253 4.791,-4.195 8.05,-5.823 3.258,-1.63 6.743,-2.886 10.457,-3.772 3.713,-0.889 7.318,-1.33 10.816,-1.33 4.935,0 8.949,0.827 12.039,2.478 3.09,1.655 4.636,4.063 4.636,7.225 0,2.587 -1.114,4.766 -3.343,6.54 -2.227,1.771 -6.384,3.474 -12.468,5.101 l -8.625,2.446 c -10.35,2.875 -17.801,6.803 -22.352,11.785 -4.553,4.984 -6.828,10.973 -6.828,17.969 0,4.504 0.958,8.661 2.875,12.468 1.916,3.811 4.599,7.117 8.05,9.919 3.449,2.804 7.509,4.984 12.181,6.54 4.672,1.558 9.763,2.336 15.273,2.336 7.618,0 14.698,-1.113 21.238,-3.341 6.54,-2.228 11.798,-5.259 15.775,-9.091 L 26.88,75.178 c -1.822,1.915 -4.073,3.593 -6.756,5.03 -2.685,1.438 -5.606,2.563 -8.769,3.377 -3.162,0.814 -6.349,1.223 -9.558,1.223 -3.163,0 -5.918,-0.409 -8.266,-1.223 -2.347,-0.814 -4.18,-1.977 -5.498,-3.484 -1.318,-1.51 -1.976,-3.295 -1.976,-5.355 0,-1.679 0.491,-3.079 1.473,-4.204 0.982,-1.127 2.635,-2.192 4.959,-3.198 2.324,-1.008 5.474,-2.111 9.451,-3.307 L 10.709,61.45 C 21.01,58.432 28.461,54.646 33.061,50.095 37.66,45.542 39.96,39.625 39.96,32.342 39.96,25.969 38.331,20.351 35.073,15.487 31.814,10.625 27.203,6.827 21.237,4.097 15.272,1.364 8.193,0 0,0"
             style="fill:#ffffff;fill-opacity:1;fill-rule:nonzero;stroke:none"
             id="path66" />
        </g>
      </g>
    </g>
  </g>
</svg>
