<?xml version="1.0" encoding="UTF-8" standalone="no"?>
<svg
   xmlns:dc="http://purl.org/dc/elements/1.1/"
   xmlns:cc="http://creativecommons.org/ns#"
   xmlns:rdf="http://www.w3.org/1999/02/22-rdf-syntax-ns#"
   xmlns:svg="http://www.w3.org/2000/svg"
   xmlns="http://www.w3.org/2000/svg"
   viewBox="0 0 723.75336 280.49332"
   height="280.49332"
   width="723.75336"
   xml:space="preserve"
   id="svg2"
   version="1.1"><metadata
     id="metadata8"><rdf:RDF><cc:Work
         rdf:about=""><dc:format>image/svg+xml</dc:format><dc:type
           rdf:resource="http://purl.org/dc/dcmitype/StillImage" /></cc:Work></rdf:RDF></metadata><defs
     id="defs6"><clipPath
       id="clipPath26"
       clipPathUnits="userSpaceOnUse"><path
         id="path24"
         d="M 0,210.37 H 542.815 V 0 H 0 Z" /></clipPath></defs><g
     transform="matrix(1.3333333,0,0,-1.3333333,0,280.49333)"
     id="g10"><g
       transform="translate(437.3196,115.1088)"
       id="g12"><path
         id="path14"
         style="fill:#ffffff;fill-opacity:1;fill-rule:nonzero;stroke:none"
         d="M 0,0 0.125,39.076 H 21.109 L 20.984,0 h 15.292 v 38.853 15.111 h -51.439 l 0,-53.964 z" /></g><g
       transform="translate(296.221,192.769)"
       id="g16"><path
         id="path18"
         style="fill:#ffffff;fill-opacity:1;fill-rule:nonzero;stroke:none"
         d="m 0,0 h -55.115 v -16.231 h 18.901 V -76.37 h 17.316 v 60.139 H 0 Z" /></g><g
       id="g20"><g
         clip-path="url(#clipPath26)"
         id="g22"><g
           transform="translate(306.8352,40.7602)"
           id="g28"><path
             id="path30"
             style="fill:#ffffff;fill-opacity:1;fill-rule:nonzero;stroke:none"
             d="M 0,0 C 0,7.582 -5.687,13.404 -13.27,13.404 H -31.276 V -13.539 H -13.27 C -5.687,-13.539 0,-7.582 0,0 M -31.276,50.908 V 27.079 h 14.215 c 6.499,0 11.781,5.146 11.781,11.914 0,6.771 -5.01,11.915 -11.781,11.915 z M 16.652,-2.708 c 0,-14.758 -11.236,-25.317 -26.131,-25.317 h -37.367 v 93.421 h 33.713 c 13.81,0 24.37,-10.02 24.37,-23.559 C 11.237,32.901 6.634,25.184 0.135,21.663 9.884,18.685 16.652,8.665 16.652,-2.708" /></g><path
           id="path32"
           style="fill:#ffffff;fill-opacity:1;fill-rule:nonzero;stroke:none"
           d="m 384.279,81.785 h 15.164 V 12.734 h -15.164 z m -2.031,14.763 c 0,5.551 4.197,9.613 9.613,9.613 5.55,0 9.748,-4.062 9.748,-9.613 0,-5.415 -4.198,-9.613 -9.748,-9.613 -5.416,0 -9.613,4.198 -9.613,9.613" /><g
           transform="translate(413.1165,33.0434)"
           id="g34"><path
             id="path36"
             style="fill:#ffffff;fill-opacity:1;fill-rule:nonzero;stroke:none"
             d="m 0,0 h 15.436 c 0,-4.874 4.061,-8.802 9.341,-8.802 4.874,0 8.801,3.115 8.801,7.313 0,5.144 -5.144,7.852 -12.185,9.748 -10.155,2.571 -20.445,7.852 -20.445,21.257 0,13.267 10.831,20.849 23.423,20.849 13.675,0 23.694,-9.342 23.694,-20.985 H 32.63 c 0,4.333 -3.52,7.852 -8.395,7.852 -4.332,0 -7.852,-2.977 -7.852,-6.768 0,-4.875 4.874,-7.719 12.456,-9.613 11.237,-2.844 20.173,-8.666 20.173,-20.987 0,-13.675 -10.831,-21.799 -24.369,-21.799 C 10.29,-21.935 0,-12.186 0,0" /></g><g
           transform="translate(514.39,35.2094)"
           id="g38"><path
             id="path40"
             style="fill:#ffffff;fill-opacity:1;fill-rule:nonzero;stroke:none"
             d="m 0,0 v 9.071 h -16.111 c -6.771,0 -11.914,-4.332 -11.914,-10.019 0,-5.823 5.143,-10.155 11.914,-10.155 C -6.499,-11.103 0,-6.771 0,0 M 23.559,-8.665 V -22.476 H 1.76 v 7.854 c -4.468,-5.822 -11.779,-9.479 -20.444,-9.479 -14.216,0 -24.913,9.885 -24.913,23.018 0,12.998 10.697,22.881 24.913,22.881 H 0 v 10.426 h -38.723 v 14.351 h 53.887 v -55.24 z" /></g><g
           transform="translate(372.3362,81.8579)"
           id="g42"><path
             id="path44"
             style="fill:#ffffff;fill-opacity:1;fill-rule:nonzero;stroke:none"
             d="M 0,0 V -15.164 H -21.205 V -69.117 H -36.37 v 69.114 h 0.009 V 0 Z" /></g><g
           transform="translate(118.8206,201.831)"
           id="g46"><path
             id="path48"
             style="fill:#ffffff;fill-opacity:1;fill-rule:nonzero;stroke:none"
             d="m 0,0 c -45.221,0.334 -83.555,-29.833 -95.478,-71.261 -0.403,-1.4 -0.777,-2.815 -1.118,-4.241 3.753,-1.774 10.725,-3.84 22.926,-2.838 8.908,32.177 38.519,55.694 73.502,55.436 25.017,-0.184 47.111,-12.487 60.751,-31.299 0.056,-0.008 0.11,-0.016 0.163,-0.022 0.178,-0.024 0.355,-0.047 0.528,-0.073 3.677,-0.046 6.485,-0.355 8.232,-0.588 7.136,-0.958 10.912,-2.611 12.555,-3.4 4.613,-2.217 8.241,-5.236 9.932,-6.722 C 78.351,-27.348 42.399,-0.314 0,0 m 88.053,-122.996 c -2.316,1.195 -7.319,3.607 -16.626,5.53 -8.207,-31.882 -36.725,-55.818 -71.274,-56.742 -30.642,-0.82 -57.511,16.684 -70.106,42.558 -0.058,0.114 -0.113,0.228 -0.167,0.342 -0.184,0.382 -0.365,0.766 -0.542,1.152 -1.535,0.115 -3.205,0.298 -4.999,0.583 -2.654,0.421 -6.702,1.036 -11.596,3.054 -3.681,1.514 -6.697,2.696 -9.752,5.506 -0.398,0.365 -0.775,0.738 -1.127,1.113 0.042,-0.192 0.085,-0.386 0.129,-0.575 0.011,-0.05 0.022,-0.098 0.034,-0.146 10.248,-44.857 50.98,-77.76 98.738,-76.483 44.068,1.181 80.61,31.104 92.149,71.345 -1.545,0.964 -3.164,1.888 -4.861,2.763" /></g><g
           transform="translate(5.9314,140.3007)"
           id="g50"><path
             id="path52"
             style="fill:#ffffff;fill-opacity:1;fill-rule:nonzero;stroke:none"
             d="m 0,0 c 1.336,-4.349 4.878,-13.545 13.809,-19.344 2.709,-1.759 10.92,-6.483 30.871,-3.585 19.993,2.904 27.795,9.974 44.414,15.933 10.868,3.897 27.013,7.858 48.796,6.971 -4.343,-0.981 -10.3,-2.605 -17.129,-5.378 -3.887,-1.578 -6.761,-2.937 -9.329,-4.287 -7.837,-4.116 -13.988,-7.825 -18.156,-10.451 -6.018,-3.791 -7.583,-5.123 -14.838,-9.611 -7.13,-4.41 -10.799,-6.659 -15.831,-8.984 -4.352,-2.01 -9.475,-3.943 -15.865,-5.665 -3.926,-1.058 -15.597,-2.425 -25.571,1.678 C 17.707,-41.298 6.29,-36.601 1.169,-23.067 -2.674,-12.911 -0.83,-3.439 0,0" /></g><g
           transform="translate(233.5276,96.1816)"
           id="g54"><path
             id="path56"
             style="fill:#ffffff;fill-opacity:1;fill-rule:nonzero;stroke:none"
             d="m 0,0 c -7.298,7.097 -14.578,11.61 -20.784,14.56 -37.135,17.651 -80.372,-3.424 -96.014,-10.918 -6.09,-2.917 -10.868,-5.66 -13.808,-7.423 -33.44,-16.7 -65.093,-19.566 -79.695,-4.836 -2.265,2.285 -4.395,5.272 -6.041,9.245 0.75,-0.61 1.843,-1.446 3.229,-2.332 6.61,-4.219 12.936,-5.11 15.638,-5.49 15.254,-2.148 31.783,5.483 34.142,6.6 6.097,2.885 12.337,6.855 22.07,13.152 4.283,2.771 6.36,4.177 6.36,4.177 4.304,2.891 5.731,4.002 10.765,7.092 4.381,2.689 10.801,6.606 19.325,10.711 5.015,2.415 13.512,6.558 22.545,8.978 5.174,1.385 22.264,5.381 39.034,0.514 C -13.802,35.488 -1.644,4.397 0,0" /></g><g
           transform="translate(105.9549,86.1723)"
           id="g58"><path
             id="path60"
             style="fill:#ffffff;fill-opacity:1;fill-rule:nonzero;stroke:none"
             d="m 0,0 c 6.543,3.992 15.855,9.165 27.489,13.983 8.688,3.597 17.148,7.104 27.635,9.075 7.678,1.444 38.721,7.279 61.129,-11.444 3.414,-2.852 9.439,-8.013 13.177,-17.345 4.474,-11.167 3.012,-21.665 2.106,-26.226 -4.155,7.895 -12.999,21.926 -29.189,31.028 C 98.736,1.103 88.509,6.402 65.132,7.811 50.51,8.691 27.81,8.226 0,0" /></g><g
           transform="translate(307.5628,147.7993)"
           id="g62"><path
             id="path64"
             style="fill:#ffffff;fill-opacity:1;fill-rule:nonzero;stroke:none"
             d="M 0,0 C 1.753,6.111 6.821,9.542 12.722,9.542 18.596,9.331 22.629,5.572 24.616,0 Z m 40.276,0 c -2.32,12.885 -13.598,22.442 -27.812,22.442 -17.167,0 -28.799,-12.286 -28.799,-27.59 0,-16.033 12.663,-27.688 28.637,-27.688 12.639,0 23.489,7.673 27.468,18.456 0.007,0.02 0.011,0.036 0.019,0.056 H 23.664 c -0.008,-0.012 -0.019,-0.024 -0.028,-0.036 -2.566,-3.347 -6.5,-5.493 -10.914,-5.493 -5.683,0 -8.966,2.768 -10.842,5.529 -1.119,1.642 -1.741,3.283 -2.074,4.338 h 40.486 c 0,0.008 0.004,0.02 0.004,0.028 0.274,1.523 0.421,3.414 0.421,5.013 0,1.693 -0.151,3.343 -0.441,4.945" /></g><g
           transform="translate(410.846,137.3256)"
           id="g66"><path
             id="path68"
             style="fill:#ffffff;fill-opacity:1;fill-rule:nonzero;stroke:none"
             d="m 0,0 c -0.008,-0.04 -0.017,-0.083 -0.024,-0.123 -2.474,-12.782 -13.63,-22.24 -27.879,-22.24 -16.977,0 -28.395,12.219 -28.395,27.649 0,16.526 12.71,27.769 28.395,27.769 14.466,0 25.528,-9.705 27.82,-22.145 0.008,-0.032 0.012,-0.068 0.016,-0.099 h -16.129 c -2.046,4.509 -6.56,7.642 -11.794,7.642 -7.166,0 -12.972,-5.862 -12.972,-13.087 0,-7.23 5.806,-13.087 12.972,-13.087 5.265,0 9.799,3.168 11.83,7.721 z" /></g><g
           transform="translate(509.3821,129.624)"
           id="g70"><path
             id="path72"
             style="fill:#ffffff;fill-opacity:1;fill-rule:nonzero;stroke:none"
             d="m 0,0 c -7.218,0 -13.075,5.857 -13.075,13.075 0,7.222 5.857,13.079 13.075,13.079 7.222,0 13.079,-5.857 13.079,-13.079 C 13.079,5.857 7.222,0 0,0 m 0.012,40.804 c -15.768,0 -28.554,-12.441 -28.554,-27.784 0,-15.344 12.786,-27.785 28.554,-27.785 15.772,0 28.552,12.441 28.552,27.785 0,15.343 -12.78,27.784 -28.552,27.784" /></g></g></g></g></svg>