<svg width="24" height="24" viewBox="0 0 24 24" fill="none" xmlns="http://www.w3.org/2000/svg">
<path d="M16.9999 4H8.17065C8.58249 2.83481 9.69373 2 10.9999 2H16.9999C18.6568 2 19.9999 3.34315 19.9999 5V17.5027C19.9999 17.9142 19.5306 18.1496 19.2008 17.9034L18 17.0068L17.9999 5C17.9999 4.44772 17.5522 4 16.9999 4Z" fill="#4C4C4C"/>
<path d="M7 6C5.34315 6 4 7.34315 4 9V21.4723C4 21.9116 4.48958 22.1736 4.85509 21.9299L9.99996 18.5L15.1449 21.93C15.5104 22.1736 16 21.9116 16 21.4723V9C16 7.34315 14.6569 6 13 6H7Z" fill="#4C4C4C"/>
</svg>
