<svg width="24" height="24" viewBox="0 0 24 24" fill="none" xmlns="http://www.w3.org/2000/svg">
<path d="M4 3H6V5H4C3.44772 5 3 5.44772 3 6V8H1V6C1 4.34315 2.34315 3 4 3Z" fill="#4C4C4C"/>
<path d="M3 18C3 18.5523 3.44772 19 4 19H6V21H4C2.34315 21 1 19.6569 1 18V16H3V18Z" fill="#4C4C4C"/>
<path d="M18 21V19H20C20.5523 19 21 18.5523 21 18V16H23V18C23 19.6569 21.6569 21 20 21H18Z" fill="#4C4C4C"/>
<path d="M18 3V5H20C20.5523 5 21 5.44772 21 6V8H23V6C23 4.34315 21.6569 3 20 3H18Z" fill="#4C4C4C"/>
<path fill-rule="evenodd" clip-rule="evenodd" d="M5 9C5 7.89543 5.89543 7 7 7H17C18.1046 7 19 7.89543 19 9V15C19 16.1046 18.1046 17 17 17H7C5.89543 17 5 16.1046 5 15V9ZM6.5 10H17.5V11.75H6.5V10Z" fill="#4C4C4C"/>
</svg>
