<svg width="24" height="24" viewBox="0 0 24 24" fill="none" xmlns="http://www.w3.org/2000/svg">
<path d="M16.5 11C16.5 13.4853 14.4853 15.5 12 15.5C9.51472 15.5 7.5 13.4853 7.5 11C7.5 8.51472 9.51472 6.5 12 6.5C14.4853 6.5 16.5 8.51472 16.5 11Z" fill="#4C4C4C"/>
<path fill-rule="evenodd" clip-rule="evenodd" d="M17 18.4845C19.412 16.8699 21 14.1204 21 11C21 6.02944 16.9706 2 12 2C7.02944 2 3 6.02944 3 11C3 14.1204 4.58803 16.8699 7 18.4845V22.5L12 20.5L17 22.5V18.4845ZM12 17.75C15.7279 17.75 18.75 14.7279 18.75 11C18.75 7.27208 15.7279 4.25 12 4.25C8.27208 4.25 5.25 7.27208 5.25 11C5.25 14.7279 8.27208 17.75 12 17.75Z" fill="#4C4C4C"/>
</svg>
