<svg width="24" height="24" viewBox="0 0 24 24" fill="none" xmlns="http://www.w3.org/2000/svg">
<path d="M5 2C3.34315 2 2 3.34315 2 5V8H4V5C4 4.44772 4.44772 4 5 4H8V2H5Z" fill="#4C4C4C"/>
<path d="M5 22C3.34315 22 2 20.6569 2 19V16H4V19C4 19.5523 4.44772 20 5 20H8V22H5Z" fill="#4C4C4C"/>
<path d="M22 5C22 3.34315 20.6569 2 19 2H16V4H19C19.5523 4 20 4.44772 20 5V8H22V5Z" fill="#4C4C4C"/>
<path d="M19 22C20.6569 22 22 20.6569 22 19V16H20V19C20 19.5523 19.5523 20 19 20H16V22H19Z" fill="#4C4C4C"/>
<path d="M12 7C12.5523 7 13 7.44772 13 8V11.5C13 12.6404 12.3246 13.4557 11.4472 13.8944C10.9532 14.1414 10.3525 13.9412 10.1055 13.4472C9.85856 12.9532 10.0588 12.3526 10.5528 12.1056C10.9011 11.9314 11 11.73 11 11.5V8C11 7.44772 11.4477 7 12 7Z" fill="#4C4C4C"/>
<path d="M7 7C6.44772 7 6 7.44772 6 8V10C6 10.5523 6.44772 11 7 11C7.55228 11 8 10.5523 8 10V8C8 7.44772 7.55228 7 7 7Z" fill="#4C4C4C"/>
<path d="M16 8C16 7.44772 16.4477 7 17 7C17.5523 7 18 7.44772 18 8V10C18 10.5523 17.5523 11 17 11C16.4477 11 16 10.5523 16 10V8Z" fill="#4C4C4C"/>
<path d="M15.7619 15.3477C16.1178 15.8032 16.0728 16.4642 15.5992 16.7956C14.5365 17.5391 13.3373 18 12 18C10.6627 18 9.46371 17.5391 8.401 16.7956C7.92735 16.4642 7.88236 15.8032 8.23825 15.3477C8.56014 14.9357 9.16785 14.9068 9.60107 15.1995C10.325 15.6887 11.1101 16 12.0001 16C12.8901 16 13.6752 15.6887 14.3991 15.1995C14.8323 14.9068 15.44 14.9357 15.7619 15.3477Z" fill="#4C4C4C"/>
</svg>
