<svg width="24" height="24" viewBox="0 0 24 24" fill="none" xmlns="http://www.w3.org/2000/svg">
<path d="M12 8C12.5523 8 13 8.44772 13 9V11.5C13 12.6404 12.3246 13.4557 11.4472 13.8944C10.9532 14.1414 10.3525 13.9412 10.1055 13.4472C9.85856 12.9532 10.0588 12.3526 10.5528 12.1056C10.9011 11.9314 11 11.73 11 11.5V9C11 8.44772 11.4477 8 12 8Z" fill="#4C4C4C"/>
<path d="M8 8C7.44772 8 7 8.44772 7 9V11C7 11.5523 7.44772 12 8 12C8.55228 12 9 11.5523 9 11V9C9 8.44772 8.55228 8 8 8Z" fill="#4C4C4C"/>
<path d="M15 9C15 8.44772 15.4477 8 16 8C16.5523 8 17 8.44772 17 9V11C17 11.5523 16.5523 12 16 12C15.4477 12 15 11.5523 15 11V9Z" fill="#4C4C4C"/>
<path d="M15.5992 16.7956C16.0728 16.4642 16.1178 15.8032 15.7619 15.3477C15.44 14.9357 14.8323 14.9068 14.3991 15.1995C13.6752 15.6887 12.8901 16 12.0001 16C11.1101 16 10.325 15.6887 9.60107 15.1995C9.16785 14.9068 8.56014 14.9357 8.23825 15.3477C7.88236 15.8032 7.92735 16.4642 8.401 16.7956C9.46371 17.5391 10.6627 18 12 18C13.3373 18 14.5365 17.5391 15.5992 16.7956Z" fill="#4C4C4C"/>
<path fill-rule="evenodd" clip-rule="evenodd" d="M12 22C17.5228 22 22 17.5228 22 12C22 6.47715 17.5228 2 12 2C6.47715 2 2 6.47715 2 12C2 17.5228 6.47715 22 12 22ZM12 20C16.4183 20 20 16.4183 20 12C20 7.58172 16.4183 4 12 4C7.58172 4 4 7.58172 4 12C4 16.4183 7.58172 20 12 20Z" fill="#4C4C4C"/>
</svg>
