<svg width="24" height="24" viewBox="0 0 24 24" fill="none" xmlns="http://www.w3.org/2000/svg">
<path d="M12 4C8.68629 4 6 6.68629 6 10V12C6 12.5523 5.55228 13 5 13C4.44772 13 4 12.5523 4 12V10C4 5.58172 7.58172 2 12 2C13.4729 2 14.9503 2.46388 16.1118 3.13577C16.5899 3.41232 16.7533 4.02404 16.4767 4.5021C16.2002 4.98017 15.5885 5.14353 15.1104 4.86698C14.2127 4.34769 13.0771 4 12 4Z" fill="#4C4C4C"/>
<path d="M18.7941 5.6869C18.509 5.21385 17.8945 5.06144 17.4214 5.34648C16.9484 5.63152 16.796 6.24606 17.081 6.71911C17.6269 7.62508 17.9999 8.8716 17.9999 10V14C17.9999 15.3173 17.7203 16.2945 17.0648 17.2342C16.7489 17.6872 16.8599 18.3105 17.3129 18.6265C17.7659 18.9424 18.3892 18.8314 18.7052 18.3784C19.6315 17.0504 19.9999 15.6573 19.9999 14V10C19.9999 8.48912 19.5178 6.88801 18.7941 5.6869Z" fill="#4C4C4C"/>
<path d="M9.5 10C9.5 9.44772 9.05228 9 8.5 9C7.94772 9 7.5 9.44772 7.5 10V14C7.5 16.4853 9.51472 18.5 12 18.5C14.4853 18.5 16.5 16.4853 16.5 14C16.5 13.4477 16.0523 13 15.5 13C14.9477 13 14.5 13.4477 14.5 14C14.5 15.3807 13.3807 16.5 12 16.5C10.6193 16.5 9.5 15.3807 9.5 14V10Z" fill="#4C4C4C"/>
<path d="M12 9C12.5523 9 13 9.44772 13 10V14C13 14.5523 12.5523 15 12 15C11.4477 15 11 14.5523 11 14V10C11 9.44772 11.4477 9 12 9Z" fill="#4C4C4C"/>
<path d="M10.5225 8.01412C10.9455 7.66832 11.3891 7.5 12 7.5C13.3808 7.5 14.5 8.61929 14.5 10V11C14.5 11.5523 14.9478 12 15.5 12C16.0523 12 16.5 11.5523 16.5 11V10C16.5 7.51472 14.4853 5.5 12 5.5C10.9315 5.5 10.0399 5.82545 9.25677 6.46557C8.82915 6.81509 8.76583 7.44508 9.11534 7.8727C9.46486 8.30032 10.0948 8.36364 10.5225 8.01412Z" fill="#4C4C4C"/>
<path d="M6.06072 14.8584C5.98252 14.3117 5.47592 13.9319 4.9292 14.0101C4.38248 14.0883 4.00267 14.5949 4.08088 15.1416C4.63556 19.0194 7.9688 22 11.9999 22C13.5065 22 14.9186 21.5826 16.1236 20.8565C16.5966 20.5715 16.7491 19.9569 16.464 19.4839C16.179 19.0108 15.5644 18.8584 15.0914 19.1435C14.1893 19.6871 13.1327 20 11.9999 20C8.97808 20 6.4765 17.7651 6.06072 14.8584Z" fill="#4C4C4C"/>
</svg>
