<svg width="24" height="24" viewBox="0 0 24 24" fill="none" xmlns="http://www.w3.org/2000/svg">
<path fill-rule="evenodd" clip-rule="evenodd" d="M22 9.625V17.005C22 18.665 20.65 20.005 19 20.005H15.97C15.42 20.005 14.97 19.555 14.97 19.005V14.385C14.97 13.575 14.32 12.925 13.51 12.925H10.49C9.68 12.925 9.02 13.585 9.02 14.395V19.005C9.02 19.555 8.57 20.005 8.02 20.005H5C3.34 20.005 2 18.665 2 17.005V9.625C2 8.615 2.51 7.675 3.35 7.115L10.35 2.495C11.35 1.835 12.65 1.835 13.65 2.495L16.01 4.045C16.15 3.395 16.73 2.915 17.43 2.915H18.51C19.32 2.915 19.97 3.565 19.97 4.375V6.655L20.65 7.105C21.49 7.665 22 8.605 22 9.615V9.625Z" fill="#4C4C4C"/>
</svg>
