<svg width="20" height="20" viewBox="0 0 20 20" fill="none" xmlns="http://www.w3.org/2000/svg">
<g clip-path="url(#clip0_401_576)">
<path d="M14.45 10C14.45 11.23 13.95 12.34 13.15 13.15C12.34 13.95 11.23 14.45 10 14.45C7.54005 14.45 5.55005 12.46 5.55005 10C5.55005 8.77005 6.05005 7.66005 6.85005 6.85005C7.66005 6.05005 8.77005 5.55005 10 5.55005C11.23 5.55005 12.34 6.05005 13.15 6.85005C13.95 7.66005 14.45 8.77005 14.45 10Z" fill="#4C4C4C"/>
<path d="M16.5601 4.68998C16.5601 5.56998 15.8401 6.27998 14.9601 6.27998C14.0801 6.27998 13.3701 5.56998 13.3701 4.68998C13.3701 3.80998 14.0901 3.09998 14.9601 3.09998C15.8301 3.09998 16.5601 3.80998 16.5601 4.68998Z" fill="#4C4C4C"/>
<path d="M15.63 0H4.37C1.97 0 0 1.97 0 4.37V15.63C0 18.03 1.97 20 4.37 20H15.63C18.03 20 20 18.03 20 15.63V4.37C20 1.97 18.03 0 15.63 0ZM18 15.6C18 16.92 16.92 18 15.6 18H4.4C3.08 18 2 16.92 2 15.6V4.4C2 3.08 3.08 2 4.4 2H15.6C16.92 2 18 3.08 18 4.4V15.6Z" fill="#4C4C4C"/>
<path d="M14.45 10C14.45 11.23 13.95 12.34 13.15 13.15C12.34 13.95 11.23 14.45 10 14.45C7.54005 14.45 5.55005 12.46 5.55005 10C5.55005 8.77005 6.05005 7.66005 6.85005 6.85005C7.66005 6.05005 8.77005 5.55005 10 5.55005C11.23 5.55005 12.34 6.05005 13.15 6.85005C13.95 7.66005 14.45 8.77005 14.45 10Z" fill="white"/>
<path d="M16.5601 4.68998C16.5601 5.56998 15.8401 6.27998 14.9601 6.27998C14.0801 6.27998 13.3701 5.56998 13.3701 4.68998C13.3701 3.80998 14.0901 3.09998 14.9601 3.09998C15.8301 3.09998 16.5601 3.80998 16.5601 4.68998Z" fill="white"/>
<path d="M14.45 10C14.45 11.23 13.95 12.34 13.15 13.15C12.34 13.95 11.23 14.45 10 14.45C7.54005 14.45 5.55005 12.46 5.55005 10C5.55005 8.77005 6.05005 7.66005 6.85005 6.85005C7.66005 6.05005 8.77005 5.55005 10 5.55005C11.23 5.55005 12.34 6.05005 13.15 6.85005C13.95 7.66005 14.45 8.77005 14.45 10Z" fill="#4C4C4C"/>
<path d="M16.5601 4.68998C16.5601 5.56998 15.8401 6.27998 14.9601 6.27998C14.0801 6.27998 13.3701 5.56998 13.3701 4.68998C13.3701 3.80998 14.0901 3.09998 14.9601 3.09998C15.8301 3.09998 16.5601 3.80998 16.5601 4.68998Z" fill="#4C4C4C"/>
</g>
<defs>
<clipPath id="clip0_401_576">
<rect width="20" height="20" fill="white"/>
</clipPath>
</defs>
</svg>
