<svg width="24" height="24" viewBox="0 0 24 24" fill="none" xmlns="http://www.w3.org/2000/svg">
<path fill-rule="evenodd" clip-rule="evenodd" d="M6.5 8.5C6.5 5.46243 8.96243 3 12 3C14.0407 3 15.8219 4.11145 16.7711 5.76205C17.1015 6.33644 16.7384 7.01924 16.106 7.21687L15.819 7.30657C15.2917 7.47134 14.7417 7.16131 14.4131 6.71727C13.8666 5.97879 12.9892 5.5 12 5.5C10.3431 5.5 9 6.84315 9 8.5V10.5H16.5C18.1569 10.5 19.5 11.8431 19.5 13.5V19C19.5 20.6569 18.1569 22 16.5 22H7.5C5.84315 22 4.5 20.6569 4.5 19V13.5C4.5 12.1938 5.33481 11.0825 6.5 10.6707V8.5ZM12 17.5C12.8284 17.5 13.5 16.8284 13.5 16C13.5 15.1716 12.8284 14.5 12 14.5C11.1716 14.5 10.5 15.1716 10.5 16C10.5 16.8284 11.1716 17.5 12 17.5Z" fill="#4C4C4C"/>
</svg>
