<svg width="24" height="24" viewBox="0 0 24 24" fill="none" xmlns="http://www.w3.org/2000/svg">
<path fill-rule="evenodd" clip-rule="evenodd" d="M12 3C8.96243 3 6.5 5.46243 6.5 8.5V10.5H6C4.34315 10.5 3 11.8431 3 13.5V19C3 20.6569 4.34315 22 6 22H18C19.6569 22 21 20.6569 21 19V13.5C21 11.8431 19.6569 10.5 18 10.5H17.5V8.5C17.5 5.46243 15.0376 3 12 3ZM9 8.5V10.5H15V8.5C15 6.84315 13.6569 5.5 12 5.5C10.3431 5.5 9 6.84315 9 8.5ZM7.5 17.5C8.32843 17.5 9 16.8284 9 16C9 15.1716 8.32843 14.5 7.5 14.5C6.67157 14.5 6 15.1716 6 16C6 16.8284 6.67157 17.5 7.5 17.5ZM12 17.5C12.8284 17.5 13.5 16.8284 13.5 16C13.5 15.1716 12.8284 14.5 12 14.5C11.1716 14.5 10.5 15.1716 10.5 16C10.5 16.8284 11.1716 17.5 12 17.5ZM18 16C18 16.8284 17.3284 17.5 16.5 17.5C15.6716 17.5 15 16.8284 15 16C15 15.1716 15.6716 14.5 16.5 14.5C17.3284 14.5 18 15.1716 18 16Z" fill="#4C4C4C"/>
</svg>
