<svg width="24" height="24" viewBox="0 0 24 24" fill="none" xmlns="http://www.w3.org/2000/svg">
<path fill-rule="evenodd" clip-rule="evenodd" d="M12 3C8.96243 3 6.5 5.46243 6.5 8.5V10.6707C5.33481 11.0825 4.5 12.1938 4.5 13.5V19C4.5 20.6569 5.84315 22 7.5 22H16.5C18.1569 22 19.5 20.6569 19.5 19V13.5C19.5 12.1938 18.6652 11.0825 17.5 10.6707V8.5C17.5 5.46243 15.0376 3 12 3ZM9 8.5V10.5H15V8.5C15 6.84315 13.6569 5.5 12 5.5C10.3431 5.5 9 6.84315 9 8.5ZM12 17.5C12.8284 17.5 13.5 16.8284 13.5 16C13.5 15.1716 12.8284 14.5 12 14.5C11.1716 14.5 10.5 15.1716 10.5 16C10.5 16.8284 11.1716 17.5 12 17.5Z" fill="#4C4C4C"/>
</svg>
