<svg width="24" height="24" viewBox="0 0 24 24" fill="none" xmlns="http://www.w3.org/2000/svg">
<path fill-rule="evenodd" clip-rule="evenodd" d="M6.5 8.5C6.5 5.46243 8.96243 3 12 3C14.0407 3 15.8219 4.11145 16.7711 5.76205C17.1015 6.33644 16.7384 7.01924 16.106 7.21687L15.819 7.30657C15.2917 7.47134 14.7417 7.16131 14.4131 6.71727C13.8666 5.97879 12.9892 5.5 12 5.5C10.3431 5.5 9 6.84315 9 8.5V10.5H18C19.6569 10.5 21 11.8431 21 13.5V19C21 20.6568 19.6569 22 18 22H6C4.34315 22 3 20.6568 3 19V13.5C3 11.8431 4.34315 10.5 6 10.5H6.5V8.5ZM7.5 17.5C8.32843 17.5 9 16.8284 9 16C9 15.1716 8.32843 14.5 7.5 14.5C6.67157 14.5 6 15.1716 6 16C6 16.8284 6.67157 17.5 7.5 17.5ZM12 17.5C12.8284 17.5 13.5 16.8284 13.5 16C13.5 15.1716 12.8284 14.5 12 14.5C11.1716 14.5 10.5 15.1716 10.5 16C10.5 16.8284 11.1716 17.5 12 17.5ZM18 16C18 16.8284 17.3284 17.5 16.5 17.5C15.6716 17.5 15 16.8284 15 16C15 15.1716 15.6716 14.5 16.5 14.5C17.3284 14.5 18 15.1716 18 16Z" fill="#4C4C4C"/>
</svg>
