<svg width="24" height="24" viewBox="0 0 24 24" fill="none" xmlns="http://www.w3.org/2000/svg">
<path fill-rule="evenodd" clip-rule="evenodd" d="M5 5C3.34315 5 2 6.34315 2 8V16C2 17.6569 3.34315 19 5 19H19C20.6569 19 22 17.6569 22 16V8C22 6.34315 20.6569 5 19 5H5ZM5.29949 7.11675C4.88586 6.87709 4.35631 7.01821 4.11672 7.43196C3.87712 7.8457 4.01821 8.37539 4.43184 8.61505L12 13L19.5682 8.61505C19.9818 8.37539 20.1229 7.8457 19.8833 7.43196C19.6437 7.01821 19.1141 6.87709 18.7005 7.11675L12 10.999L5.29949 7.11675Z" fill="#4C4C4C"/>
</svg>
