<svg width="24" height="24" viewBox="0 0 24 24" fill="none" xmlns="http://www.w3.org/2000/svg">
<g clip-path="url(#clip0_22_1879)">
<path d="M7.42683 4.24611C6.95129 4.52696 6.79347 5.14014 7.07433 5.61568C7.35518 6.09122 7.96836 6.24904 8.4439 5.96819C11.1284 4.38269 14.6441 4.74484 16.9495 7.05025C18.3159 8.41657 19 10.2075 18.9999 12H16.9999L19.9999 16L22.9999 12H20.9997C20.9996 9.69775 20.1216 7.39392 18.3638 5.63604C15.3974 2.66972 10.8779 2.20787 7.42683 4.24611Z" fill="#4C4C4C"/>
<path d="M24.0206 12.7071L23.9999 12.7279V12.7071H24.0206Z" fill="#4C4C4C"/>
<path d="M7.05005 16.9497C9.35546 19.2552 12.8712 19.6173 15.5557 18.0318C16.0312 17.751 16.6444 17.9088 16.9253 18.3843C17.2061 18.8599 17.0483 19.473 16.5728 19.7539C13.1217 21.7921 8.60215 21.3303 5.63583 18.364C3.87796 16.6061 2.99999 14.3023 2.99993 12L0.999878 12L3.99988 8L6.99988 12H4.99966C4.9996 13.7925 5.68374 15.5834 7.05005 16.9497Z" fill="#4C4C4C"/>
<path d="M-0.000181019 11.2929V11.2721L-0.0209961 11.2929H-0.000181019Z" fill="#4C4C4C"/>
<path d="M12.9999 7H10.9999V8C9.86682 8.177 8.9999 9.16573 8.9999 10.3485C8.9999 11.4995 9.82746 12.4839 10.9614 12.6817L12.7463 12.993C13.0663 13.0488 13.2999 13.3267 13.2999 13.6515C13.2999 14.0207 13.0006 14.32 12.6314 14.32H11.5199C11.067 14.32 10.6999 13.9529 10.6999 13.5H8.99988C8.99988 14.7135 9.85761 15.7604 10.9999 16V17H12.9999V16C14.133 15.823 14.9999 14.8343 14.9999 13.6515C14.9999 12.5005 14.1723 11.5161 13.0384 11.3183L11.2535 11.007C10.9335 10.9512 10.6999 10.6733 10.6999 10.3485C10.6999 9.97928 10.9992 9.68 11.3684 9.68H12.4798C12.9327 9.68 13.2998 10.0471 13.2998 10.5H14.9998C14.9998 9.28652 14.1421 8.23966 12.9999 8V7Z" fill="#4C4C4C"/>
</g>
<defs>
<clipPath id="clip0_22_1879">
<rect width="24" height="24" fill="white"/>
</clipPath>
</defs>
</svg>
