<svg width="24" height="24" viewBox="0 0 24 24" fill="none" xmlns="http://www.w3.org/2000/svg">
<g clip-path="url(#clip0_22_1881)">
<path d="M7.07433 5.61568C6.79347 5.14014 6.95129 4.52696 7.42683 4.24611C10.8779 2.20787 15.3974 2.66972 18.3638 5.63604C20.1216 7.39392 20.9996 9.69777 20.9997 12H22.9999L19.9999 16L16.9999 12L18.9999 12C19 10.2075 18.3159 8.41658 16.9495 7.05025C14.6441 4.74484 11.1284 4.38269 8.4439 5.96819C7.96836 6.24904 7.35518 6.09122 7.07433 5.61568Z" fill="#4C4C4C"/>
<path d="M23.9999 12.7279L24.0206 12.7071H23.9999V12.7279Z" fill="#4C4C4C"/>
<path d="M15.5557 18.0318C12.8712 19.6173 9.35546 19.2552 7.05005 16.9497C5.68374 15.5834 4.9996 13.7925 4.99966 12L6.99988 12L3.99988 8.00003L0.999878 12L2.99993 12C2.99999 14.3023 3.87796 16.6061 5.63583 18.364C8.60215 21.3303 13.1217 21.7921 16.5728 19.7539C17.0483 19.473 17.2061 18.8599 16.9253 18.3843C16.6444 17.9088 16.0312 17.751 15.5557 18.0318Z" fill="#4C4C4C"/>
<path d="M-0.000181019 11.2721V11.2929H-0.0209961L-0.000181019 11.2721Z" fill="#4C4C4C"/>
<path fill-rule="evenodd" clip-rule="evenodd" d="M9.58321 8.00003H13.2499C14.6306 8.00003 15.7499 9.11932 15.7499 10.5C15.7499 11.8807 14.6306 13 13.2499 13H11.0832V13.75H13.9999V15H11.0832V16H9.58321V15H8.49988V13.75H9.58321V13H8.49988V11.5H9.58321V8.00003ZM11.0832 11.5H13.2499C13.8022 11.5 14.2499 11.0523 14.2499 10.5C14.2499 9.94775 13.8022 9.50003 13.2499 9.50003H11.0832V11.5Z" fill="#4C4C4C"/>
</g>
<defs>
<clipPath id="clip0_22_1881">
<rect width="24" height="24" fill="white"/>
</clipPath>
</defs>
</svg>
