<svg width="24" height="24" viewBox="0 0 24 24" fill="none" xmlns="http://www.w3.org/2000/svg">
<path d="M8 6H6V8H8V6Z" fill="#4C4C4C"/>
<path fill-rule="evenodd" clip-rule="evenodd" d="M3 6C3 4.34315 4.34315 3 6 3H8C9.65685 3 11 4.34315 11 6V8C11 9.65685 9.65685 11 8 11H6C4.34315 11 3 9.65685 3 8V6ZM5 5H9V9H5V5Z" fill="#4C4C4C"/>
<path d="M18 6H16V8H18V6Z" fill="#4C4C4C"/>
<path fill-rule="evenodd" clip-rule="evenodd" d="M13 6C13 4.34315 14.3431 3 16 3H18C19.6569 3 21 4.34315 21 6V8C21 9.65685 19.6569 11 18 11H16C14.3431 11 13 9.65685 13 8V6ZM15 5H19V9H15V5Z" fill="#4C4C4C"/>
<path d="M6 16H8V18H6V16Z" fill="#4C4C4C"/>
<path fill-rule="evenodd" clip-rule="evenodd" d="M6 13C4.34315 13 3 14.3431 3 16V18C3 19.6569 4.34315 21 6 21H8C9.65685 21 11 19.6569 11 18V16C11 14.3431 9.65685 13 8 13H6ZM9 15H5V19H9V15Z" fill="#4C4C4C"/>
<path d="M18 13H13V15H18V13Z" fill="#4C4C4C"/>
<path d="M19 13H21V15H19V13Z" fill="#4C4C4C"/>
<path d="M18 16H16V18H18V16Z" fill="#4C4C4C"/>
<path d="M13 16H15V21H13V16Z" fill="#4C4C4C"/>
<path d="M17 19V21H21V16H19V19H17Z" fill="#4C4C4C"/>
</svg>
