<svg width="24" height="24" viewBox="0 0 24 24" fill="none" xmlns="http://www.w3.org/2000/svg">
<path d="M7 5H9V11H7V9H3C2.44772 9 2 8.55229 2 8C2 7.44772 2.44772 7 3 7H7V5Z" fill="#4C4C4C"/>
<path d="M21 7L10.5 7V9L21 9C21.5523 9 22 8.55229 22 8C22 7.44772 21.5523 7 21 7Z" fill="#4C4C4C"/>
<path d="M3 15C2.44772 15 2 15.4477 2 16C2 16.5523 2.44772 17 3 17H13.5V15H3Z" fill="#4C4C4C"/>
<path d="M21 15L17 15L17 13H15V19H17V17L21 17C21.5523 17 22 16.5523 22 16C22 15.4477 21.5523 15 21 15Z" fill="#4C4C4C"/>
</svg>
