<svg width="24" height="24" viewBox="0 0 24 24" fill="none" xmlns="http://www.w3.org/2000/svg">
<path d="M12 8C12 10.2091 10.2091 12 8 12C5.79086 12 4 10.2091 4 8C4 5.79086 5.79086 4 8 4C10.2091 4 12 5.79086 12 8Z" fill="#4C4C4C"/>
<path d="M15 11C14.4477 11 14 11.4477 14 12C14 12.5523 14.4477 13 15 13H17V15C17 15.5523 17.4477 16 18 16C18.5523 16 19 15.5523 19 15V13H21C21.5523 13 22 12.5523 22 12C22 11.4477 21.5523 11 21 11H19V9C19 8.44772 18.5523 8 18 8C17.4477 8 17 8.44772 17 9V11H15Z" fill="#4C4C4C"/>
<path d="M7.69287 13.5C5.49785 13.5 3.5595 14.9316 2.91398 17.0296L2 20H14L13.086 17.0296C12.4405 14.9316 10.5022 13.5 8.30713 13.5H7.69287Z" fill="#4C4C4C"/>
</svg>
