<svg width="24" height="24" viewBox="0 0 24 24" fill="none" xmlns="http://www.w3.org/2000/svg">
<path d="M12 8C12 10.2091 10.2091 12 8 12C5.79086 12 4 10.2091 4 8C4 5.79086 5.79086 4 8 4C10.2091 4 12 5.79086 12 8Z" fill="#4C4C4C"/>
<path d="M2.34303 19.2558C2.71835 16.2532 5.27075 14 8.29669 14H8.70331C11.7292 14 14.2817 16.2532 14.657 19.2558L15 22H2L2.34303 19.2558Z" fill="#4C4C4C"/>
<path d="M13.2508 10.9055C13.7282 10.0447 14 9.05408 14 8C14 6.94592 13.7282 5.95532 13.2508 5.09448C13.9675 4.41606 14.9352 4 16 4C18.2091 4 20 5.79086 20 8C20 10.2091 18.2091 12 16 12C14.9352 12 13.9675 11.5839 13.2508 10.9055Z" fill="#4C4C4C"/>
<path d="M16.6415 19.0077L17.0155 22H22L21.6569 19.2558C21.2816 16.2532 18.7292 14 15.7033 14H15.2967C14.8957 14 14.503 14.0396 14.1226 14.1152C15.4726 15.3582 16.3987 17.0654 16.6415 19.0077Z" fill="#4C4C4C"/>
</svg>
