<svg width="24" height="24" viewBox="0 0 24 24" fill="none" xmlns="http://www.w3.org/2000/svg">
<path fill-rule="evenodd" clip-rule="evenodd" d="M12 22C17.5228 22 22 17.5228 22 12C22 6.47715 17.5228 2 12 2C6.47715 2 2 6.47715 2 12C2 17.5228 6.47715 22 12 22ZM15 9C15 10.6569 13.6569 12 12 12C10.3431 12 9 10.6569 9 9C9 7.34315 10.3431 6 12 6C13.6569 6 15 7.34315 15 9ZM18 17C17 18.5 14.3568 20 12 20C9.64316 20 7 18.5 6 17C6.78789 15.1616 8.49986 14 10.5 14H13.5C15.5001 14 17.2121 15.1616 18 17Z" fill="#4C4C4C"/>
</svg>
