<svg width="24" height="24" viewBox="0 0 24 24" fill="none" xmlns="http://www.w3.org/2000/svg">
<path d="M8 12C10.2091 12 12 10.2091 12 8C12 5.79086 10.2091 4 8 4C5.79086 4 4 5.79086 4 8C4 10.2091 5.79086 12 8 12Z" fill="#4C4C4C"/>
<path d="M14 12C14 11.4477 14.4477 11 15 11H21C21.5523 11 22 11.4477 22 12C22 12.5523 21.5523 13 21 13H15C14.4477 13 14 12.5523 14 12Z" fill="#4C4C4C"/>
<path d="M7.69287 13.5C5.49785 13.5 3.5595 14.9316 2.91398 17.0296L2 20H14L13.086 17.0296C12.4405 14.9316 10.5022 13.5 8.30713 13.5H7.69287Z" fill="#4C4C4C"/>
</svg>
