<svg width="24" height="24" viewBox="0 0 24 24" fill="none" xmlns="http://www.w3.org/2000/svg">
<path d="M12 8C12 10.2091 10.2091 12 8 12C5.79086 12 4 10.2091 4 8C4 5.79086 5.79086 4 8 4C10.2091 4 12 5.79086 12 8Z" fill="#4C4C4C"/>
<path d="M7.69287 13.5C5.49785 13.5 3.5595 14.9316 2.91398 17.0296L2 20H14L13.086 17.0296C12.4405 14.9316 10.5022 13.5 8.30713 13.5H7.69287Z" fill="#4C4C4C"/>
<path d="M15.2929 9.29289C15.6834 8.90237 16.3166 8.90237 16.7071 9.29289L18 10.5858L19.2929 9.29289C19.6834 8.90237 20.3166 8.90237 20.7071 9.29289C21.0976 9.68342 21.0976 10.3166 20.7071 10.7071L19.4142 12L20.7071 13.2929C21.0976 13.6834 21.0976 14.3166 20.7071 14.7071C20.3166 15.0976 19.6834 15.0976 19.2929 14.7071L18 13.4142L16.7071 14.7071C16.3166 15.0976 15.6834 15.0976 15.2929 14.7071C14.9024 14.3166 14.9024 13.6834 15.2929 13.2929L16.5858 12L15.2929 10.7071C14.9024 10.3166 14.9024 9.68342 15.2929 9.29289Z" fill="#4C4C4C"/>
</svg>
