<svg width="24" height="24" viewBox="0 0 24 24" fill="none" xmlns="http://www.w3.org/2000/svg">
<path d="M6.00943 9.00001L13.9905 9.00001L13.9905 11L6.00943 11V9.00001Z" fill="#4C4C4C"/>
<path fill-rule="evenodd" clip-rule="evenodd" d="M10 18C11.8267 18 13.5105 17.3877 14.8572 16.3572L19.75 21.25C20.1642 21.6642 20.8358 21.6642 21.25 21.25C21.6642 20.8358 21.6642 20.1642 21.25 19.75L16.3572 14.8572C17.3877 13.5105 18 11.8267 18 10C18 5.58172 14.4183 2 10 2C5.58172 2 2 5.58172 2 10C2 14.4183 5.58172 18 10 18ZM10 16C13.3137 16 16 13.3137 16 10C16 6.68629 13.3137 4 10 4C6.68629 4 4 6.68629 4 10C4 13.3137 6.68629 16 10 16Z" fill="#4C4C4C"/>
</svg>
